<svg width="24" height="24" viewBox="0 0 24 24" fill="none" xmlns="http://www.w3.org/2000/svg">
<path d="M16.1898 2H7.81976C4.17976 2 2.00977 4.17 2.00977 7.81V16.18C2.00977 19.82 4.17976 21.99 7.81976 21.99H16.1898C19.8298 21.99 21.9998 19.82 21.9998 16.18V7.81C21.9998 4.17 19.8298 2 16.1898 2Z" fill="#FF895B"/>
<path d="M8.47878 17C8.09651 17 7.7746 16.9021 7.51305 16.7063C7.26155 16.5007 7.13581 16.1972 7.13581 15.7957V10.7437C7.13581 10.3422 7.26155 10.0436 7.51305 9.8478C7.7746 9.64219 8.09651 9.53939 8.47878 9.53939C8.86105 9.53939 9.17793 9.64219 9.42942 9.8478C9.69098 10.0436 9.82175 10.3422 9.82175 10.7437V15.7957C9.82175 16.1972 9.69098 16.5007 9.42942 16.7063C9.17793 16.9021 8.86105 17 8.47878 17ZM8.47878 8.51135C8.02609 8.51135 7.66394 8.39875 7.39233 8.17356C7.13078 7.93858 7 7.63017 7 7.24833C7 6.86649 7.13078 6.56297 7.39233 6.33778C7.66394 6.11259 8.02609 6 8.47878 6C8.92141 6 9.27853 6.11259 9.55014 6.33778C9.82175 6.56297 9.95756 6.86649 9.95756 7.24833C9.95756 7.63017 9.82175 7.93858 9.55014 8.17356C9.28859 8.39875 8.93147 8.51135 8.47878 8.51135Z" fill="white"/>
<path d="M16.3744 9.51001C17.2597 9.51001 17.9186 9.76947 18.3511 10.2884C18.7837 10.7975 19 11.5759 19 12.6235V15.7957C19 16.1678 18.8793 16.4615 18.6378 16.6769C18.3964 16.8923 18.0695 17 17.657 17C17.2446 17 16.9176 16.8923 16.6762 16.6769C16.4348 16.4615 16.3141 16.1678 16.3141 15.7957V12.741C16.3141 12.3102 16.2336 11.9969 16.0726 11.8011C15.9217 11.6053 15.6903 11.5073 15.3785 11.5073C14.9761 11.5073 14.6542 11.6346 14.4128 11.8892C14.1814 12.134 14.0657 12.4668 14.0657 12.8879V15.7957C14.0657 16.1678 13.945 16.4615 13.7036 16.6769C13.4621 16.8923 13.1352 17 12.7227 17C12.3103 17 11.9833 16.8923 11.7419 16.6769C11.5005 16.4615 11.3798 16.1678 11.3798 15.7957V10.7143C11.3798 10.3716 11.5055 10.0926 11.757 9.87717C12.0085 9.65198 12.3354 9.53939 12.7378 9.53939C13.1201 9.53939 13.4219 9.64219 13.6432 9.8478C13.8746 10.0534 13.9903 10.3227 13.9903 10.6555C14.2518 10.2835 14.5888 9.99955 15.0013 9.80374C15.4137 9.60792 15.8714 9.51001 16.3744 9.51001Z" fill="white"/>
</svg>
